<svg width="144" height="64" viewBox="0 0 144 64" fill="none" xmlns="http://www.w3.org/2000/svg">
<rect width="144" height="64" fill="white"/>
<g clip-path="url(#clip0_2531_1384)">
<path d="M96.8795 24.8909C91.9144 24.8909 89.252 27.9387 89.252 32.8293V42.5396H93.6414V29.0018H100.082V42.5042H104.471V32.7938C104.471 27.8678 101.917 24.8555 96.9154 24.8555L96.8795 24.8909Z" fill="#7A2822"/>
<path d="M79.8255 24.8906C75.0043 24.8906 71.9102 28.2573 71.9102 33.7504C71.9102 39.2435 74.9324 42.9646 79.8975 42.9646C84.8625 42.9646 86.1218 42.0077 87.1292 37.7196L83.1715 36.6564C82.7398 38.7473 81.5525 39.4561 79.8615 39.4561C78.1705 39.4561 76.5514 38.074 76.3715 34.8845H87.2731V33.4669C87.2731 27.6549 84.107 24.8906 79.8255 24.8906ZM82.6319 31.9785H76.4075C76.7313 29.2851 77.9186 28.3637 79.6456 28.3637C81.3726 28.3637 82.6319 29.7103 82.6319 31.6595C82.6319 33.6087 82.6319 31.8721 82.6319 32.0139V31.9785Z" fill="#7A2822"/>
<path d="M118.611 20V28.1864C117.855 26.0955 116.02 24.8906 113.754 24.8906C109.76 24.8906 106.594 27.8675 106.594 33.9276C106.594 39.9877 109.76 43 113.754 43C117.747 43 117.855 41.7951 118.611 39.6687V42.5393H123V20H118.611ZM114.977 39.2435C112.35 39.2435 111.019 37.2234 111.019 33.9276C111.019 30.6317 112.35 28.6117 114.977 28.6117C117.603 28.6117 118.611 30.8089 118.611 33.9276C118.611 37.0462 117.495 39.2435 114.977 39.2435Z" fill="#7A2822"/>
<path d="M68.2754 21.0625L63.3823 38.2505L58.3812 21.0625H53.668L60.36 42.5386H66.4045L72.9886 21.0625H68.2754Z" fill="#7A2822"/>
<path d="M29.707 42.5392H34.0605V33.9629H29.707V42.5392Z" fill="#7A2822"/>
<path d="M38.4138 21.0625H25.3534C22.9429 21.0625 21 22.9762 21 25.3506V42.5032H25.3534V34.9901C25.3534 34.7774 25.3534 34.5648 25.3534 34.3522C25.6772 31.1272 28.4836 28.5756 31.8656 28.5756C35.2476 28.5756 38.018 31.1272 38.3778 34.3522C38.3778 34.5648 38.3778 34.7774 38.3778 34.9901V42.5032H42.7312V25.3506C42.7312 22.9762 40.7884 21.0625 38.3778 21.0625H38.4138Z" fill="#7A2822"/>
</g>
<defs>
<clipPath id="clip0_2531_1384">
<rect width="102" height="23" fill="white" transform="translate(21 20)"/>
</clipPath>
</defs>
</svg>
